<?xml version="1.0" standalone="no"?><!DOCTYPE svg PUBLIC "-//W3C//DTD SVG 1.1//EN" "http://www.w3.org/Graphics/SVG/1.1/DTD/svg11.dtd"><svg width="800" height="600" version="1.1" xmlns="http://www.w3.org/2000/svg" xmlns:xlink="http://www.w3.org/1999/xlink"><defs xmlns="http://www.w3.org/1999/xhtml"><style type="text/css"><![CDATA[
body { background-color: rgb(234, 234, 234); }
#canvas svg { box-shadow: rgba(0, 0, 0, 0.0588235) 0px 3px 2px 0px, rgba(0, 0, 0, 0.0196078) -1px -1px 1px 0px inset; border-width: 1px; border-style: solid; border-color: rgb(226, 226, 226) rgb(226, 226, 226) rgb(206, 206, 206); background-color: white; }]]></style></defs><rect x="0" y="0" width="800" height="600" fill="rgb(177, 69, 195)" stroke="rgb(0, 0, 0)"/><path d="M 0 0 C 250 0 100 300 -350 -200 M 0 0 C 249.9503885173361 -4.980289151518394 100 300 -350.04961148266386 -195.0197108484816 M 0 0 C 249.80157375973812 -9.958601666805574 100 300 -350.1984262402619 -190.04139833319442 M 0 0 C 249.55361479057223 -14.93296169414116 100 300 -350.4463852094278 -185.06703830585883 M 0 0 C 249.20661002273516 -19.901394950515073 100 300 -350.79338997726484 -180.09860504948492 M 0 0 C 248.76069717959518 -24.861929505204383 100 300 -351.2393028204048 -175.1380704947956 M 0 0 C 248.2160532403305 -29.81259656241659 100 300 -351.7839467596695 -170.1874034375834 M 0 0 C 247.572894369688 -34.75143124268862 100 300 -352.427105630312 -165.24856875731138 M 0 0 C 246.8314758321889 -39.67647336273152 100 300 -353.16852416781114 -160.3235266372685 M 0 0 C 245.99209189081662 -44.58576821341122 100 300 -354.0079081091834 -155.41423178658877 M 0 0 C 245.05507569022598 -49.47736733555672 100 300 -354.944924309774 -150.52263266444328 M 0 0 C 244.0207991245209 -54.34932929328763 100 300 -355.97920087547914 -145.65067070671236 M 0 0 C 242.88967268965268 -59.19972044455432 100 300 -357.1103273103473 -140.80027955544568 M 0 0 C 241.66214532049742 -64.02661570858469 100 300 -358.3378546795026 -135.9733842914153 M 0 0 C 240.33870421267747 -68.828099329933 100 300 -359.6612957873225 -131.171900670067 M 0 0 C 238.91987462919744 -73.60226563882777 100 300 -361.08012537080253 -126.39773436117223 M 0 0 C 237.40621969197164 -78.34721980751642 100 300 -362.5937803080284 -121.65278019248358 M 0 0 C 235.79834015832546 -83.06107860230712 100 300 -364.20165984167454 -116.93892139769288 M 0 0 C 234.09687418255976 -87.74197113100884 100 300 -365.90312581744024 -112.25802886899116 M 0 0 C 232.30249706267264 -92.38803958547325 100 300 -367.6975029373274 -107.61196041452675 M 0 0 C 230.4159209723391 -96.99743997894373 100 300 -369.5840790276609 -103.00256002105627 M 0 0 C 228.4378946782551 -101.56834287791855 100 300 -371.56210532174487 -98.43165712208145 M 0 0 C 226.3692032429583 -106.09893412823826 100 300 -373.6307967570417 -93.90106587176174 M 0 0 C 224.21066771324288 -110.5874155751087 100 300 -375.78933228675714 -89.4125844248913 M 0 0 C 221.96314479429293 -115.03200577677391 100 300 -378.03685520570707 -84.96799422322609 M 0 0 C 219.62752650966314 -119.43094071155608 100 300 -380.37247349033686 -80.56905928844392 M 0 0 C 217.20473984724174 -123.78247447798107 100 300 -382.79526015275826 -76.21752552201893 M 0 0 C 214.6957463913368 -128.0848799877128 100 300 -385.3042536086632 -71.91512001228719 M 0 0 C 212.101541941031 -132.33644965102042 100 300 -387.898458058969 -67.66355034897958 M 0 0 C 209.4231561149573 -136.53549605450675 100 300 -390.5768438850427 -63.46450394549325 M 0 0 C 206.66165194265145 -140.68035263082896 100 300 -393.3383480573485 -59.31964736917104 M 0 0 C 203.8181254426445 -144.7693743201456 100 300 -396.1818745573555 -55.2306256798544 M 0 0 C 200.89370518746165 -148.8009382230275 100 300 -399.10629481253835 -51.19906177697251 M 0 0 C 197.88955185570128 -152.77344424457317 100 300 -402.11044814429874 -47.22655575542683 M 0 0 C 194.8068577713709 -156.68531572947376 100 300 -405.1931422286291 -43.31468427052624 M 0 0 C 191.64684643066343 -160.53500008777436 100 300 -408.35315356933654 -39.464999912225636 M 0 0 C 188.4107720163617 -164.32096941108455 100 300 -411.5892279836383 -35.67903058891545 M 0 0 C 185.09991890006333 -168.0417210789927 100 300 -414.90008109993664 -31.95827892100729 M 0 0 C 181.71560113242418 -171.69577835544385 100 300 -418.2843988675758 -28.30422164455615 M 0 0 C 178.25916192162236 -175.28169097484434 100 300 -421.74083807837764 -24.718309025155662" transform="translate(600 300)" fill="none" stroke="rgb(230, 184, 46)"/></svg>