<?xml version="1.0" standalone="no"?><!DOCTYPE svg PUBLIC "-//W3C//DTD SVG 1.1//EN" "http://www.w3.org/Graphics/SVG/1.1/DTD/svg11.dtd"><svg width="800" height="600" version="1.1" xmlns="http://www.w3.org/2000/svg" xmlns:xlink="http://www.w3.org/1999/xlink"><defs xmlns="http://www.w3.org/1999/xhtml"><style type="text/css"><![CDATA[
body { background-color: rgb(234, 234, 234); }
#canvas svg { box-shadow: rgba(0, 0, 0, 0.0588235) 0px 3px 2px 0px, rgba(0, 0, 0, 0.0196078) -1px -1px 1px 0px inset; border-width: 1px; border-style: solid; border-color: rgb(226, 226, 226) rgb(226, 226, 226) rgb(206, 206, 206); background-color: white; }]]></style></defs><rect x="0" y="0" width="800" height="600" fill="rgb(173, 51, 227)" stroke="rgb(0, 0, 0)"/><path d="M 0 0 C 250 0 100 300 -350 -200 M 0 0 C 248.6953050117137 25.50774911925161 100 300 -351.3046949882863 -225.5077491192516 M 0 0 C 244.79483787895455 50.74925957899641 100 300 -355.2051621210454 -250.7492595789964 M 0 0 C 238.3393099610832 75.46107160168555 100 300 -361.6606900389168 -275.46107160168555 M 0 0 C 229.39610121746912 99.38525416893926 100 300 -370.6038987825309 -299.38525416893924 M 0 0 C 218.05855692512833 122.27209719200276 100 300 -381.9414430748717 -322.2720971920028 M 0 0 C 204.44501338180228 143.882717875757 100 300 -395.55498661819774 -343.882717875757 M 0 0 C 188.69756276376137 163.99155407220317 100 300 -411.30243723623863 -363.99155407220314 M 0 0 C 170.98057003020273 182.38871859889508 100 300 -429.0194299697973 -382.3887185988951 M 0 0 C 151.4789573541422 198.88218994897952 100 300 -448.5210426458578 -398.88218994897954 M 0 0 C 130.39627398615545 213.29981652717726 100 300 -469.60372601384455 -413.29981652717726 M 0 0 C 107.95257169688114 225.49111349237188 100 300 -492.04742830311886 -425.4911134923719 M 0 0 C 84.38210797348253 235.3288334521538 100 300 -515.6178920265174 -435.3288334521538 M 0 0 C 59.93090094309166 242.71029461510145 100 300 -540.0690990569084 -442.7102946151015 M 0 0 C 34.85416154386931 247.5584525381306 100 300 -565.1458384561307 -447.5584525381306 M 0 0 C 9.41362974554931 249.82270428248452 100 300 -590.5863702544507 -449.82270428248455 M 0 0 C -16.125157377175498 249.47941658493858 100 300 -616.1251573771755 -449.4794165849386 M 0 0 C -41.495637203777676 246.53217253140096 100 300 -641.4956372037777 -446.532172531401 M 0 0 C -66.43300383121574 241.01173415823902 100 300 -666.4330038312157 -441.01173415823905 M 0 0 C -90.67697200141068 232.97572137168152 100 300 -690.6769720014107 -432.9757213716815 M 0 0 C -113.97449384421984 222.50801053659595 100 300 -713.9744938442199 -422.508010536596 M 0 0 C -136.08240007974092 209.71785901190515 100 300 -736.0824000797409 -409.71785901190515 M 0 0 C -156.76993811223792 194.7387647703587 100 300 -756.7699381122379 -394.73876477035867 M 0 0 C -175.82118052418306 177.7270730054446 100 300 -775.8211805241831 -377.7270730054446 M 0 0 C -193.0372788316123 158.86034426906664 100 300 -793.0372788316123 -358.8603442690667 M 0 0 C -208.23853897708938 138.3355011726463 100 300 -808.2385389770893 -338.33550117264633 M 0 0 C -221.26629689719468 116.36677299556989 100 300 -821.2662968971947 -316.3667729955699 M 0 0 C -231.98457458819252 93.18345965425054 100 300 -831.9845745881926 -293.18345965425056 M 0 0 C -240.2814993845909 69.02753837051445 100 300 -840.2814993845909 -269.02753837051443 M 0 0 C -246.07047163678934 44.151138019852496 100 300 -846.0704716367893 -244.1511380198525" transform="translate(600 300)" fill="none" stroke="rgb(230, 46, 46)"/></svg>