<?xml version="1.0" standalone="no"?><!DOCTYPE svg PUBLIC "-//W3C//DTD SVG 1.1//EN" "http://www.w3.org/Graphics/SVG/1.1/DTD/svg11.dtd"><svg width="800" height="600" version="1.1" xmlns="http://www.w3.org/2000/svg" xmlns:xlink="http://www.w3.org/1999/xlink"><defs xmlns="http://www.w3.org/1999/xhtml"><style type="text/css"><![CDATA[
body { background-color: rgb(234, 234, 234); }
#canvas svg { box-shadow: rgba(0, 0, 0, 0.0588235) 0px 3px 2px 0px, rgba(0, 0, 0, 0.0196078) -1px -1px 1px 0px inset; border-width: 1px; border-style: solid; border-color: rgb(226, 226, 226) rgb(226, 226, 226) rgb(206, 206, 206); background-color: white; }]]></style></defs><rect x="0" y="0" width="800" height="600" fill="rgb(117, 20, 14)" stroke="rgb(0, 0, 0)"/><path d="M 0 0 C 250 0 100 300 -350 -200 M 0 0 C 249.35639062566145 -17.927366068180007 100 300 -350.64360937433855 -182.07263393182 M 0 0 C 247.42887636685975 -35.762426369490576 100 300 -352.57112363314025 -164.23757363050942 M 0 0 C 244.22738175356392 -53.41335040791718 100 300 -355.7726182464361 -146.58664959208284 M 0 0 C 239.7683908813341 -70.78925578204488 100 300 -360.2316091186659 -129.21074421795512 M 0 0 C 234.07486253677396 -87.80067612718237 100 300 -365.92513746322606 -112.19932387281763 M 0 0 C 227.17611198560843 -104.36002176649015 100 300 -372.82388801439157 -95.63997823350985 M 0 0 C 219.10766003204515 -120.38203069927722 100 300 -380.89233996795485 -79.61796930072278 M 0 0 C 209.9110501265938 -135.78420760438462 100 300 -390.0889498734062 -64.21579239561538 M 0 0 C 199.6336344640327 -150.48724859828147 100 300 -400.3663655359673 -49.51275140171853 M 0 0 C 188.32833017287703 -164.4154495608482 100 300 -411.67166982712297 -35.5845504391518 M 0 0 C 176.05334685169902 -177.49709592642736 100 300 -423.946653148301 -22.502904073572637 M 0 0 C 162.8718868551816 -189.6648319331576 100 300 -437.12811314481837 -10.335168066842414 M 0 0 C 148.85181987309463 -200.85600742937166 100 300 -451.14818012690534 0.8560074293716582 M 0 0 C 134.0653334777462 -211.01300045139564 100 300 -465.9346665222538 11.01300045139564 M 0 0 C 118.58856143919701 -220.08351391183712 100 300 -481.411438560803 20.083513911837116 M 0 0 C 102.50119172199506 -228.02084487075038 100 300 -497.49880827800496 28.02084487075038 M 0 0 C 85.88605618180796 -234.7841250032364 100 300 -514.1139438181921 34.7841250032364 M 0 0 C 68.82870407455225 -240.33853102533874 100 300 -531.1712959254478 40.33853102533874 M 0 0 C 51.4169615739689 -244.65546399477984 100 300 -548.5830384260311 44.655463994779836 M 0 0 C 33.74047956563346 -247.71269656333942 100 300 -566.2595204343666 47.71269656333942 M 0 0 C 15.890272045753068 -249.4944874226923 100 300 -584.109727954247 49.49448742269229 M 0 0 C -2.0417524985228703 -249.99166235443687 100 300 -602.0417524985229 49.99166235443687 M 0 0 C -19.963264314413724 -249.20166146699916 100 300 -619.9632643144138 49.201661466999155 M 0 0 C -37.78198777786335 -247.12855237619425 100 300 -637.7819877778634 47.12855237619425 M 0 0 C -55.406176509193145 -243.78300926158107 100 300 -655.4061765091932 43.78300926158107 M 0 0 C -72.74508576374238 -239.18225790644624 100 300 -672.7450857637424 39.18225790644624 M 0 0 C -89.70943966521475 -233.34998700439903 100 300 -689.7094396652147 33.349987004399026 M 0 0 C -106.21189087600561 -226.31622618924933 100 300 -706.2118908760056 26.316226189249335 M 0 0 C -122.16747033772434 -218.11719141617712 100 300 -722.1674703377244 18.11719141617712 M 0 0 C -137.4940247662544 -208.79509849030612 100 300 -737.4940247662544 8.795098490306117 M 0 0 C -152.11263964874362 -198.39794570280074 100 300 -752.1126396487437 -1.6020542971992597 M 0 0 C -165.9480455645665 -186.9792666936646 100 300 -765.9480455645665 -13.020733306335387 M 0 0 C -178.92900573816118 -174.59785481372066 100 300 -778.9290057381612 -25.40214518627934 M 0 0 C -190.98868282828263 -161.31746040499667 100 300 -790.9886828282827 -38.682539595003334 M 0 0 C -202.06498306511722 -147.20646255818352 100 300 -802.0649830651172 -52.79353744181648 M 0 0 C -212.1008759633417 -132.33751703724508 100 300 -812.1008759633417 -67.66248296275492 M 0 0 C -221.04468796496286 -116.78718218397178 100 300 -821.0446879649628 -83.21281781602822 M 0 0 C -228.85036850000807 -100.63552472864899 100 300 -828.850368500008 -99.36447527135101 M 0 0 C -235.4777270951538 -83.96570753647153 100 300 -835.4777270951538 -116.03429246352847" transform="translate(600 300)" fill="none" stroke="rgb(46, 230, 168)"/></svg>