<?xml version="1.0" standalone="no"?><!DOCTYPE svg PUBLIC "-//W3C//DTD SVG 1.1//EN" "http://www.w3.org/Graphics/SVG/1.1/DTD/svg11.dtd"><svg width="800" height="600" version="1.1" xmlns="http://www.w3.org/2000/svg" xmlns:xlink="http://www.w3.org/1999/xlink"><defs xmlns="http://www.w3.org/1999/xhtml"><style type="text/css"><![CDATA[
body { background-color: rgb(234, 234, 234); }
#canvas svg { box-shadow: rgba(0, 0, 0, 0.0588235) 0px 3px 2px 0px, rgba(0, 0, 0, 0.0196078) -1px -1px 1px 0px inset; border-width: 1px; border-style: solid; border-color: rgb(226, 226, 226) rgb(226, 226, 226) rgb(206, 206, 206); background-color: white; }]]></style></defs><path d="M 0 0 C 150 0 100 300 -450 -200 M 0 0 C 149.2804475356188 14.67473964216616 100 300 -450.7195524643812 -214.67473964216617 M 0 0 C 147.12869355246184 29.208689350016673 100 300 -452.87130644753813 -229.20868935001667 M 0 0 C 143.56538204894673 43.462409932491866 100 300 -456.43461795105327 -243.46240993249188 M 0 0 C 138.62469955272297 57.299150725968786 100 300 -461.375300447277 -257.2991507259688 M 0 0 C 132.35404713400234 70.58616158462144 100 300 -467.64595286599763 -270.58616158462144 M 0 0 C 124.81358563813374 83.19596648968175 100 300 -475.18641436186624 -283.1959664896817 M 0 0 C 116.07565850047621 95.0075865585524 100 300 -483.9243414995238 -295.0075865585524 M 0 0 C 106.2240976811028 105.90770072018148 100 300 -493.7759023188972 -305.9077007201815 M 0 0 C 95.3534193782213 115.79173292114186 100 300 -504.6465806217787 -315.79173292114183 M 0 0 C 83.56791723666284 124.56485543172387 100 300 -516.4320827633371 -324.56485543172386 M 0 0 C 70.98066175122644 132.1428986262901 100 300 -529.0193382487736 -332.1428986262901 M 0 0 C 57.71241546463668 138.45315850942933 100 300 -542.2875845353633 -338.45315850942933 M 0 0 C 43.890474367740616 143.43509424047764 100 300 -556.1095256322594 -343.4350942404776 M 0 0 C 29.647446617588983 147.0409089643328 100 300 -570.352553382411 -347.0409089643328 M 0 0 C 15.119980290420065 149.23600837605284 100 300 -584.88001970958 -349.23600837605284 M 0 0 C 0.44745237552628914 149.99933261975414 100 300 -599.5525476244737 -349.9993326197541 M 0 0 C -14.229368412160897 149.32355833756105 100 300 -614.2293684121609 -349.32355833756105 M 0 0 C -28.769672171747303 147.2151689301418 100 300 -628.7696721717473 -347.2151689301418 M 0 0 C -43.0339587511921 143.6943923547495 100 300 -643.0339587511921 -343.69439235474954 M 0 0 C -56.88537611635026 138.79500705753563 100 300 -656.8853761163502 -338.7950070575356 M 0 0 C -70.19103331388479 132.56401790202767 100 300 -670.1910333138848 -332.5640179020277 M 0 0 C -82.82327543143975 125.06120520292401 100 300 -682.8232754314397 -325.06120520292404 M 0 0 C -94.66090832306377 116.35855119179044 100 300 -694.6609083230637 -316.3585511917904 M 0 0 C -105.59036134982887 106.53954941716512 100 300 -705.5903613498289 -306.5395494171651 M 0 0 C -115.50677698027168 95.69840370471067 100 300 -715.5067769802716 -295.6984037047107 M 0 0 C -124.31501679699606 83.93912436261525 100 300 -724.315016796996 -283.93912436261525 M 0 0 C -131.9305742577755 71.37453030327825 100 300 -731.9305742577756 -271.3745303032782 M 0 0 C -138.28038545409615 58.125166654957575 100 300 -738.2803854540962 -258.1251666549576 M 0 0 C -143.30353008869577 44.31814824784835 100 300 -743.3035300886958 -244.31814824784834" transform="translate(600 300)" fill="none" stroke="rgb(230, 46, 46)"/></svg>