<?xml version="1.0" standalone="no"?><!DOCTYPE svg PUBLIC "-//W3C//DTD SVG 1.1//EN" "http://www.w3.org/Graphics/SVG/1.1/DTD/svg11.dtd"><svg width="800" height="600" version="1.1" xmlns="http://www.w3.org/2000/svg" xmlns:xlink="http://www.w3.org/1999/xlink"><defs xmlns="http://www.w3.org/1999/xhtml"><style type="text/css"><![CDATA[
body { background-color: rgb(234, 234, 234); }
#canvas svg { box-shadow: rgba(0, 0, 0, 0.0588235) 0px 3px 2px 0px, rgba(0, 0, 0, 0.0196078) -1px -1px 1px 0px inset; border-width: 1px; border-style: solid; border-color: rgb(226, 226, 226) rgb(226, 226, 226) rgb(206, 206, 206); background-color: white; }]]></style></defs><rect x="0" y="0" width="800" height="600" fill="rgb(182, 4, 56)" stroke="rgb(0, 0, 0)"/><path d="M 0 0 C 150 0 100 300 -450 -200 M 0 0 C 149.37426692453087 13.686795854362702 100 300 -450.62573307546916 -213.6867958543627 M 0 0 C 147.50228825654668 27.25940129721516 100 300 -452.49771174345335 -227.25940129721516 M 0 0 C 144.39968211563576 40.60457861994558 100 300 -455.60031788436424 -240.60457861994558 M 0 0 C 140.09233387889844 53.61098757123617 100 300 -459.90766612110156 -253.61098757123617 M 0 0 C 134.61618021645862 66.17011428076827 100 300 -465.3838197835414 -266.1701142807683 M 0 0 C 128.01690926795544 78.17717660212642 100 300 -471.98309073204456 -278.17717660212645 M 0 0 C 120.3495794614751 89.531998321528 100 300 -479.6504205385249 -289.531998321528 M 0 0 C 111.67816015515682 100.13984493876124 100 300 -488.32183984484317 -300.13984493876126 M 0 0 C 102.07499793395029 109.91221404732072 100 300 -497.92500206604973 -309.91221404732073 M 0 0 C 91.62021301426755 118.7675737195142 100 300 -508.37978698573244 -318.7675737195142 M 0 0 C 80.40103079239077 126.63204273611412 100 300 -519.5989692076092 -326.6320427361141 M 0 0 C 68.51105411359917 133.44000698532463 100 300 -531.4889458864009 -333.44000698532466 M 0 0 C 56.0494823335525 139.13466688838116 100 300 -543.9505176664475 -339.13466688838116 M 0 0 C 43.120283687385445 143.66851128455184 100 300 -556.8797163126145 -343.66851128455187 M 0 0 C 29.831327871527616 147.00371382186717 100 300 -570.1686721284724 -347.00371382186717 M 0 0 C 16.2934860752114 149.1124485464473 100 300 -583.7065139247886 -349.1124485464473 M 0 0 C 2.619705970202449 149.97712205743142 100 300 -597.3802940297976 -349.9771220574314 M 0 0 C -11.075930623787265 149.59052029061553 100 300 -611.0759306237873 -349.59052029061553 M 0 0 C -24.679159536004946 147.95586870616663 100 300 -624.6791595360049 -347.9558687061666 M 0 0 C -38.07648756293653 145.08680537826152 100 300 -638.0764875629366 -345.0868053782615 M 0 0 C -51.15613935432386 141.00726721116538 100 300 -651.1561393543238 -341.0072672111654 M 0 0 C -63.8089899669471 135.75129023106206 100 300 -663.8089899669471 -335.75129023106206 M 0 0 C -75.9294753057757 129.36272561982295 100 300 -675.9294753057757 -329.362725619823 M 0 0 C -87.41647285657982 121.89487385987502 100 300 -687.4164728565798 -321.894873859875 M 0 0 C -98.1741453619544 113.410040042537 100 300 -698.1741453619544 -313.410040042537 M 0 0 C -108.11274040187716 103.97901404993375 100 300 -708.1127404018772 -303.97901404993377 M 0 0 C -117.14933920781247 93.68047994738762 100 300 -717.1493392078124 -293.68047994738765 M 0 0 C -125.20854846292534 82.6003595137895 100 300 -725.2085484629254 -282.6003595137895 M 0 0 C -132.22312931664183 70.83109538694576 100 300 -732.2231293166418 -270.8310953869458" transform="translate(600 300)" fill="none" stroke="rgb(230, 46, 46)"/></svg>