<?xml version="1.0" standalone="no"?><!DOCTYPE svg PUBLIC "-//W3C//DTD SVG 1.1//EN" "http://www.w3.org/Graphics/SVG/1.1/DTD/svg11.dtd"><svg width="800" height="600" version="1.1" xmlns="http://www.w3.org/2000/svg" xmlns:xlink="http://www.w3.org/1999/xlink"><defs xmlns="http://www.w3.org/1999/xhtml"><style type="text/css"><![CDATA[
body { background-color: rgb(234, 234, 234); }
#canvas svg { box-shadow: rgba(0, 0, 0, 0.0588235) 0px 3px 2px 0px, rgba(0, 0, 0, 0.0196078) -1px -1px 1px 0px inset; border-width: 1px; border-style: solid; border-color: rgb(226, 226, 226) rgb(226, 226, 226) rgb(206, 206, 206); background-color: white; }]]></style></defs><rect x="0" y="0" width="800" height="600" fill="rgb(251, 22, 184)" stroke="rgb(0, 0, 0)"/><path d="M 0 0 C 250 0 100 300 -350 -200 M 0 0 C 249.9520815023608 -4.894584010636201 100 300 -350.0479184976392 -195.1054159893638 M 0 0 C 249.8083443789026 -9.787291692373536 100 300 -350.1916556210974 -190.21270830762646 M 0 0 C 249.56884373096142 -14.676247435600029 100 300 -350.4311562690386 -185.32375256439997 M 0 0 C 249.23367137062715 -19.559577069001765 100 300 -350.7663286293729 -180.44042293099824 M 0 0 C 248.80295578554748 -24.435408578022663 100 300 -351.1970442144525 -175.56459142197733 M 0 0 C 248.27686208967233 -29.301872822497497 100 300 -351.72313791032764 -170.6981271775025 M 0 0 C 247.65559195995795 -34.15710425318298 100 300 -352.344408040042 -165.84289574681702 M 0 0 C 246.93938355905422 -38.99924162691232 100 300 -353.06061644094575 -161.00075837308768 M 0 0 C 246.12851144400577 -43.826428720099045 100 300 -353.87148855599423 -156.17357127990095 M 0 0 C 245.22328646100078 -48.636815040316485 100 300 -354.7767135389992 -151.3631849596835 M 0 0 C 244.22405562620895 -53.42855653568044 100 300 -355.77594437379105 -146.57144346431954 M 0 0 C 243.13120199275346 -58.19981630176263 100 300 -356.86879800724654 -141.80018369823736 M 0 0 C 241.94514450386836 -62.948765285764374 100 300 -358.0548554961316 -137.05123471423562 M 0 0 C 240.66633783229753 -67.67358298768022 100 300 -359.33366216770247 -132.32641701231978 M 0 0 C 239.29527220599667 -72.37245815818305 100 300 -360.70472779400336 -127.62754184181695 M 0 0 C 237.83247322020569 -77.0435894929627 100 300 -362.16752677979434 -122.9564105070373 M 0 0 C 236.27850163596247 -81.68518632325248 100 300 -363.72149836403753 -118.31481367674752 M 0 0 C 234.63395316513663 -86.29546930227839 100 300 -365.36604683486337 -113.70453069772161 M 0 0 C 232.89945824206424 -90.87267108736802 100 300 -367.10054175793573 -109.12732891263198 M 0 0 C 231.07568178187236 -95.41503701745792 100 300 -368.9243182181276 -104.58496298254208 M 0 0 C 229.16332292558494 -99.92082578573932 100 300 -370.8366770744151 -100.07917421426068 M 0 0 C 227.1631147721088 -104.38831010718455 100 300 -372.83688522789123 -95.61168989281545 M 0 0 C 225.0758240972013 -108.81577738069835 100 300 -374.9241759027987 -91.18422261930165 M 0 0 C 222.90225105952868 -113.20153034563997 100 300 -377.0977489404713 -86.79846965436003 M 0 0 C 220.64322889392673 -117.54388773246464 100 300 -379.35677110607327 -82.45611226753536 M 0 0 C 218.29962359198197 -121.84118490723483 100 300 -381.70037640801803 -78.15881509276517 M 0 0 C 215.87233357005536 -126.09177450975437 100 300 -384.1276664299446 -73.90822549024563 M 0 0 C 213.36228932487646 -130.29402708508056 100 300 -386.63771067512357 -69.70597291491944 M 0 0 C 210.7704530768391 -134.44633170817258 100 300 -389.2295469231609 -65.55366829182742" transform="translate(600 300)" fill="none" stroke="rgb(230, 147, 46)"/></svg>